<svg class="img-fluid" id="outputsvg" xmlns="http://www.w3.org/2000/svg" width="72" height="103" viewBox="0 0 720 1030"><g id="l5LuYwPZmne0mvctQQFSyRS" fill="currentcolor" style="transform: none;"><g style="transform: none;"><path id="pxBWyluON" d="M102 947 l-62 -63 0 -370 0 -370 63 -62 63 -62 185 0 185 0 62 63 c56 57 75 87 54 87 -4 0 -28 -20 -52 -45 l-44 -45 -188 0 -188 0 0 405 0 404 213 3 c194 3 214 1 234 -16 12 -10 27 -15 33 -11 8 5 -11 31 -56 76 l-68 69 -186 0 -186 0 -62 -63z"></path>
  <style>
        path { fill: #000; }
        @media (prefers-color-scheme: dark) {
            path { fill: #FFF; }
        }
    </style>
  </g>
  </g>
</svg>